<?xml version="1.0" encoding="UTF-8" standalone="no"?>
<!DOCTYPE svg PUBLIC "-//W3C//DTD SVG 1.1//EN"
 "http://www.w3.org/Graphics/SVG/1.1/DTD/svg11.dtd">
<!-- Generated by graphviz version 2.43.0 (0)
 -->
<!-- Title: %3 Pages: 1 -->
<svg width="1820pt" height="476pt"
 viewBox="0.00 0.00 1820.35 476.00" xmlns="http://www.w3.org/2000/svg" xmlns:xlink="http://www.w3.org/1999/xlink">
<g id="graph0" class="graph" transform="scale(1 1) rotate(0) translate(4 472)">
<title>%3</title>
<polygon fill="white" stroke="transparent" points="-4,4 -4,-472 1816.35,-472 1816.35,4 -4,4"/>
<!-- [root] azurerm_network_security_group.bastion (expand) -->
<g id="node1" class="node">
<title>[root] azurerm_network_security_group.bastion (expand)</title>
<polygon fill="none" stroke="black" points="1464.85,-252 1152.85,-252 1152.85,-216 1464.85,-216 1464.85,-252"/>
<text text-anchor="middle" x="1308.85" y="-230.3" font-family="Times,serif" font-size="14.00">azurerm_network_security_group.bastion</text>
</g>
<!-- [root] azurerm_resource_group.main (expand) -->
<g id="node5" class="node">
<title>[root] azurerm_resource_group.main (expand)</title>
<polygon fill="none" stroke="black" points="816.85,-108 582.85,-108 582.85,-72 816.85,-72 816.85,-108"/>
<text text-anchor="middle" x="699.85" y="-86.3" font-family="Times,serif" font-size="14.00">azurerm_resource_group.main</text>
</g>
<!-- [root] azurerm_network_security_group.bastion (expand)&#45;&gt;[root] azurerm_resource_group.main (expand) -->
<g id="edge1" class="edge">
<title>[root] azurerm_network_security_group.bastion (expand)&#45;&gt;[root] azurerm_resource_group.main (expand)</title>
<path fill="none" stroke="black" d="M1238.06,-215.97C1162.7,-197.89 1039.94,-168.6 933.85,-144 884.91,-132.65 830.13,-120.23 785.89,-110.26"/>
<polygon fill="black" stroke="black" points="786.56,-106.83 776.04,-108.05 785.03,-113.66 786.56,-106.83"/>
</g>
<!-- [root] azurerm_network_security_group.web (expand) -->
<g id="node2" class="node">
<title>[root] azurerm_network_security_group.web (expand)</title>
<polygon fill="none" stroke="black" points="523.35,-252 234.35,-252 234.35,-216 523.35,-216 523.35,-252"/>
<text text-anchor="middle" x="378.85" y="-230.3" font-family="Times,serif" font-size="14.00">azurerm_network_security_group.web</text>
</g>
<!-- [root] azurerm_network_security_group.web (expand)&#45;&gt;[root] azurerm_resource_group.main (expand) -->
<g id="edge2" class="edge">
<title>[root] azurerm_network_security_group.web (expand)&#45;&gt;[root] azurerm_resource_group.main (expand)</title>
<path fill="none" stroke="black" d="M417.57,-215.87C476.26,-189.91 587.64,-140.64 651.54,-112.37"/>
<polygon fill="black" stroke="black" points="653.27,-115.44 660.99,-108.19 650.43,-109.03 653.27,-115.44"/>
</g>
<!-- [root] azurerm_network_security_rule.bastion&#45;ssh (expand) -->
<g id="node3" class="node">
<title>[root] azurerm_network_security_rule.bastion&#45;ssh (expand)</title>
<polygon fill="none" stroke="black" points="1812.35,-324 1485.35,-324 1485.35,-288 1812.35,-288 1812.35,-324"/>
<text text-anchor="middle" x="1648.85" y="-302.3" font-family="Times,serif" font-size="14.00">azurerm_network_security_rule.bastion&#45;ssh</text>
</g>
<!-- [root] azurerm_network_security_rule.bastion&#45;ssh (expand)&#45;&gt;[root] azurerm_network_security_group.bastion (expand) -->
<g id="edge3" class="edge">
<title>[root] azurerm_network_security_rule.bastion&#45;ssh (expand)&#45;&gt;[root] azurerm_network_security_group.bastion (expand)</title>
<path fill="none" stroke="black" d="M1566.11,-287.97C1516.45,-277.74 1453.16,-264.71 1401.78,-254.13"/>
<polygon fill="black" stroke="black" points="1402.17,-250.64 1391.67,-252.05 1400.76,-257.49 1402.17,-250.64"/>
</g>
<!-- [root] azurerm_network_security_rule.web&#45;http (expand) -->
<g id="node4" class="node">
<title>[root] azurerm_network_security_rule.web&#45;http (expand)</title>
<polygon fill="none" stroke="black" points="332.85,-324 22.85,-324 22.85,-288 332.85,-288 332.85,-324"/>
<text text-anchor="middle" x="177.85" y="-302.3" font-family="Times,serif" font-size="14.00">azurerm_network_security_rule.web&#45;http</text>
</g>
<!-- [root] azurerm_network_security_rule.web&#45;http (expand)&#45;&gt;[root] azurerm_network_security_group.web (expand) -->
<g id="edge4" class="edge">
<title>[root] azurerm_network_security_rule.web&#45;http (expand)&#45;&gt;[root] azurerm_network_security_group.web (expand)</title>
<path fill="none" stroke="black" d="M226.77,-287.97C254.85,-278.19 290.31,-265.84 319.92,-255.52"/>
<polygon fill="black" stroke="black" points="321.43,-258.71 329.72,-252.11 319.12,-252.09 321.43,-258.71"/>
</g>
<!-- [root] provider[&quot;registry.terraform.io/hashicorp/azurerm&quot;] -->
<g id="node14" class="node">
<title>[root] provider[&quot;registry.terraform.io/hashicorp/azurerm&quot;]</title>
<polygon fill="none" stroke="black" points="617.85,-36 263.26,-18 617.85,0 972.44,-18 617.85,-36"/>
<text text-anchor="middle" x="617.85" y="-14.3" font-family="Times,serif" font-size="14.00">provider[&quot;registry.terraform.io/hashicorp/azurerm&quot;]</text>
</g>
<!-- [root] azurerm_resource_group.main (expand)&#45;&gt;[root] provider[&quot;registry.terraform.io/hashicorp/azurerm&quot;] -->
<g id="edge5" class="edge">
<title>[root] azurerm_resource_group.main (expand)&#45;&gt;[root] provider[&quot;registry.terraform.io/hashicorp/azurerm&quot;]</title>
<path fill="none" stroke="black" d="M679.58,-71.7C669.05,-62.7 656.04,-51.6 644.68,-41.9"/>
<polygon fill="black" stroke="black" points="646.64,-38.98 636.76,-35.14 642.1,-44.3 646.64,-38.98"/>
</g>
<!-- [root] azurerm_resource_group.secondary (expand) -->
<g id="node6" class="node">
<title>[root] azurerm_resource_group.secondary (expand)</title>
<polygon fill="none" stroke="black" points="347.85,-180 75.85,-180 75.85,-144 347.85,-144 347.85,-180"/>
<text text-anchor="middle" x="211.85" y="-158.3" font-family="Times,serif" font-size="14.00">azurerm_resource_group.secondary</text>
</g>
<!-- [root] azurerm_resource_group.secondary (expand)&#45;&gt;[root] provider[&quot;registry.terraform.io/hashicorp/azurerm&quot;] -->
<g id="edge6" class="edge">
<title>[root] azurerm_resource_group.secondary (expand)&#45;&gt;[root] provider[&quot;registry.terraform.io/hashicorp/azurerm&quot;]</title>
<path fill="none" stroke="black" d="M260.83,-143.87C337.78,-116.96 486.39,-64.98 565.43,-37.34"/>
<polygon fill="black" stroke="black" points="566.89,-40.53 575.18,-33.93 564.58,-33.92 566.89,-40.53"/>
</g>
<!-- [root] azurerm_subnet.app (expand) -->
<g id="node7" class="node">
<title>[root] azurerm_subnet.app (expand)</title>
<polygon fill="none" stroke="black" points="888.35,-252 725.35,-252 725.35,-216 888.35,-216 888.35,-252"/>
<text text-anchor="middle" x="806.85" y="-230.3" font-family="Times,serif" font-size="14.00">azurerm_subnet.app</text>
</g>
<!-- [root] azurerm_virtual_network.main (expand) -->
<g id="node13" class="node">
<title>[root] azurerm_virtual_network.main (expand)</title>
<polygon fill="none" stroke="black" points="924.85,-180 688.85,-180 688.85,-144 924.85,-144 924.85,-180"/>
<text text-anchor="middle" x="806.85" y="-158.3" font-family="Times,serif" font-size="14.00">azurerm_virtual_network.main</text>
</g>
<!-- [root] azurerm_subnet.app (expand)&#45;&gt;[root] azurerm_virtual_network.main (expand) -->
<g id="edge7" class="edge">
<title>[root] azurerm_subnet.app (expand)&#45;&gt;[root] azurerm_virtual_network.main (expand)</title>
<path fill="none" stroke="black" d="M806.85,-215.7C806.85,-207.98 806.85,-198.71 806.85,-190.11"/>
<polygon fill="black" stroke="black" points="810.35,-190.1 806.85,-180.1 803.35,-190.1 810.35,-190.1"/>
</g>
<!-- [root] azurerm_subnet.bastion (expand) -->
<g id="node8" class="node">
<title>[root] azurerm_subnet.bastion (expand)</title>
<polygon fill="none" stroke="black" points="1134.35,-252 945.35,-252 945.35,-216 1134.35,-216 1134.35,-252"/>
<text text-anchor="middle" x="1039.85" y="-230.3" font-family="Times,serif" font-size="14.00">azurerm_subnet.bastion</text>
</g>
<!-- [root] azurerm_subnet.bastion (expand)&#45;&gt;[root] azurerm_virtual_network.main (expand) -->
<g id="edge8" class="edge">
<title>[root] azurerm_subnet.bastion (expand)&#45;&gt;[root] azurerm_virtual_network.main (expand)</title>
<path fill="none" stroke="black" d="M983.15,-215.97C950.17,-206.06 908.42,-193.51 873.83,-183.12"/>
<polygon fill="black" stroke="black" points="874.39,-179.64 863.81,-180.11 872.38,-186.34 874.39,-179.64"/>
</g>
<!-- [root] azurerm_subnet.db (expand) -->
<g id="node9" class="node">
<title>[root] azurerm_subnet.db (expand)</title>
<polygon fill="none" stroke="black" points="994.35,-324 839.35,-324 839.35,-288 994.35,-288 994.35,-324"/>
<text text-anchor="middle" x="916.85" y="-302.3" font-family="Times,serif" font-size="14.00">azurerm_subnet.db</text>
</g>
<!-- [root] azurerm_subnet.db (expand)&#45;&gt;[root] azurerm_virtual_network.main (expand) -->
<g id="edge9" class="edge">
<title>[root] azurerm_subnet.db (expand)&#45;&gt;[root] azurerm_virtual_network.main (expand)</title>
<path fill="none" stroke="black" d="M916.93,-287.96C916.19,-268.74 912.43,-237.37 896.85,-216 887.48,-203.14 873.95,-192.87 860.22,-184.92"/>
<polygon fill="black" stroke="black" points="861.67,-181.72 851.21,-180.03 858.33,-187.87 861.67,-181.72"/>
</g>
<!-- [root] azurerm_subnet.web (expand) -->
<g id="node10" class="node">
<title>[root] azurerm_subnet.web (expand)</title>
<polygon fill="none" stroke="black" points="706.85,-252 540.85,-252 540.85,-216 706.85,-216 706.85,-252"/>
<text text-anchor="middle" x="623.85" y="-230.3" font-family="Times,serif" font-size="14.00">azurerm_subnet.web</text>
</g>
<!-- [root] azurerm_subnet.web (expand)&#45;&gt;[root] azurerm_virtual_network.main (expand) -->
<g id="edge10" class="edge">
<title>[root] azurerm_subnet.web (expand)&#45;&gt;[root] azurerm_virtual_network.main (expand)</title>
<path fill="none" stroke="black" d="M668.62,-215.88C693.97,-206.18 725.86,-193.98 752.62,-183.74"/>
<polygon fill="black" stroke="black" points="754.14,-186.91 762.23,-180.07 751.64,-180.37 754.14,-186.91"/>
</g>
<!-- [root] azurerm_subnet_network_security_group_association.bastion (expand) -->
<g id="node11" class="node">
<title>[root] azurerm_subnet_network_security_group_association.bastion (expand)</title>
<polygon fill="none" stroke="black" points="1466.85,-324 1012.85,-324 1012.85,-288 1466.85,-288 1466.85,-324"/>
<text text-anchor="middle" x="1239.85" y="-302.3" font-family="Times,serif" font-size="14.00">azurerm_subnet_network_security_group_association.bastion</text>
</g>
<!-- [root] azurerm_subnet_network_security_group_association.bastion (expand)&#45;&gt;[root] azurerm_network_security_group.bastion (expand) -->
<g id="edge11" class="edge">
<title>[root] azurerm_subnet_network_security_group_association.bastion (expand)&#45;&gt;[root] azurerm_network_security_group.bastion (expand)</title>
<path fill="none" stroke="black" d="M1256.91,-287.7C1265.35,-279.14 1275.68,-268.66 1284.89,-259.3"/>
<polygon fill="black" stroke="black" points="1287.46,-261.68 1291.99,-252.1 1282.48,-256.77 1287.46,-261.68"/>
</g>
<!-- [root] azurerm_subnet_network_security_group_association.bastion (expand)&#45;&gt;[root] azurerm_subnet.bastion (expand) -->
<g id="edge12" class="edge">
<title>[root] azurerm_subnet_network_security_group_association.bastion (expand)&#45;&gt;[root] azurerm_subnet.bastion (expand)</title>
<path fill="none" stroke="black" d="M1191.18,-287.97C1163.24,-278.19 1127.96,-265.84 1098.49,-255.52"/>
<polygon fill="black" stroke="black" points="1099.33,-252.11 1088.74,-252.11 1097.02,-258.72 1099.33,-252.11"/>
</g>
<!-- [root] azurerm_subnet_network_security_group_association.web (expand) -->
<g id="node12" class="node">
<title>[root] azurerm_subnet_network_security_group_association.web (expand)</title>
<polygon fill="none" stroke="black" points="782.35,-324 351.35,-324 351.35,-288 782.35,-288 782.35,-324"/>
<text text-anchor="middle" x="566.85" y="-302.3" font-family="Times,serif" font-size="14.00">azurerm_subnet_network_security_group_association.web</text>
</g>
<!-- [root] azurerm_subnet_network_security_group_association.web (expand)&#45;&gt;[root] azurerm_network_security_group.web (expand) -->
<g id="edge13" class="edge">
<title>[root] azurerm_subnet_network_security_group_association.web (expand)&#45;&gt;[root] azurerm_network_security_group.web (expand)</title>
<path fill="none" stroke="black" d="M520.86,-287.88C494.7,-278.14 461.77,-265.87 434.2,-255.61"/>
<polygon fill="black" stroke="black" points="435.29,-252.28 424.69,-252.07 432.84,-258.84 435.29,-252.28"/>
</g>
<!-- [root] azurerm_subnet_network_security_group_association.web (expand)&#45;&gt;[root] azurerm_subnet.web (expand) -->
<g id="edge14" class="edge">
<title>[root] azurerm_subnet_network_security_group_association.web (expand)&#45;&gt;[root] azurerm_subnet.web (expand)</title>
<path fill="none" stroke="black" d="M580.94,-287.7C587.78,-279.3 596.11,-269.07 603.61,-259.86"/>
<polygon fill="black" stroke="black" points="606.32,-262.07 609.92,-252.1 600.9,-257.65 606.32,-262.07"/>
</g>
<!-- [root] azurerm_virtual_network.main (expand)&#45;&gt;[root] azurerm_resource_group.main (expand) -->
<g id="edge15" class="edge">
<title>[root] azurerm_virtual_network.main (expand)&#45;&gt;[root] azurerm_resource_group.main (expand)</title>
<path fill="none" stroke="black" d="M780.68,-143.88C766.82,-134.81 749.61,-123.55 734.64,-113.76"/>
<polygon fill="black" stroke="black" points="736.41,-110.74 726.13,-108.19 732.58,-116.59 736.41,-110.74"/>
</g>
<!-- [root] provider[&quot;registry.terraform.io/hashicorp/azurerm&quot;] (close) -->
<g id="node15" class="node">
<title>[root] provider[&quot;registry.terraform.io/hashicorp/azurerm&quot;] (close)</title>
<ellipse fill="none" stroke="black" cx="810.85" cy="-378" rx="313.04" ry="18"/>
<text text-anchor="middle" x="810.85" y="-374.3" font-family="Times,serif" font-size="14.00">[root] provider[&quot;registry.terraform.io/hashicorp/azurerm&quot;] (close)</text>
</g>
<!-- [root] provider[&quot;registry.terraform.io/hashicorp/azurerm&quot;] (close)&#45;&gt;[root] azurerm_network_security_rule.bastion&#45;ssh (expand) -->
<g id="edge16" class="edge">
<title>[root] provider[&quot;registry.terraform.io/hashicorp/azurerm&quot;] (close)&#45;&gt;[root] azurerm_network_security_rule.bastion&#45;ssh (expand)</title>
<path fill="none" stroke="black" d="M993.33,-363.37C1124.38,-353.36 1305.52,-339.08 1474.85,-324.08"/>
<polygon fill="black" stroke="black" points="1475.3,-327.55 1484.95,-323.18 1474.68,-320.58 1475.3,-327.55"/>
</g>
<!-- [root] provider[&quot;registry.terraform.io/hashicorp/azurerm&quot;] (close)&#45;&gt;[root] azurerm_network_security_rule.web&#45;http (expand) -->
<g id="edge17" class="edge">
<title>[root] provider[&quot;registry.terraform.io/hashicorp/azurerm&quot;] (close)&#45;&gt;[root] azurerm_network_security_rule.web&#45;http (expand)</title>
<path fill="none" stroke="black" d="M673.5,-361.81C576.03,-351.03 444.75,-336.51 341.78,-325.13"/>
<polygon fill="black" stroke="black" points="341.92,-321.62 331.6,-324 341.15,-328.58 341.92,-321.62"/>
</g>
<!-- [root] provider[&quot;registry.terraform.io/hashicorp/azurerm&quot;] (close)&#45;&gt;[root] azurerm_resource_group.secondary (expand) -->
<g id="edge18" class="edge">
<title>[root] provider[&quot;registry.terraform.io/hashicorp/azurerm&quot;] (close)&#45;&gt;[root] azurerm_resource_group.secondary (expand)</title>
<path fill="none" stroke="black" d="M498.86,-376.24C290.09,-372.38 47.56,-360.03 13.85,-324 -39.49,-266.99 74.42,-212.18 150.6,-183.56"/>
<polygon fill="black" stroke="black" points="151.98,-186.78 160.15,-180.03 149.56,-180.21 151.98,-186.78"/>
</g>
<!-- [root] provider[&quot;registry.terraform.io/hashicorp/azurerm&quot;] (close)&#45;&gt;[root] azurerm_subnet.app (expand) -->
<g id="edge19" class="edge">
<title>[root] provider[&quot;registry.terraform.io/hashicorp/azurerm&quot;] (close)&#45;&gt;[root] azurerm_subnet.app (expand)</title>
<path fill="none" stroke="black" d="M810.37,-359.87C809.69,-335.67 808.44,-291.21 807.62,-262.39"/>
<polygon fill="black" stroke="black" points="811.12,-262.09 807.34,-252.19 804.12,-262.28 811.12,-262.09"/>
</g>
<!-- [root] provider[&quot;registry.terraform.io/hashicorp/azurerm&quot;] (close)&#45;&gt;[root] azurerm_subnet.db (expand) -->
<g id="edge20" class="edge">
<title>[root] provider[&quot;registry.terraform.io/hashicorp/azurerm&quot;] (close)&#45;&gt;[root] azurerm_subnet.db (expand)</title>
<path fill="none" stroke="black" d="M836.51,-360.05C850.34,-350.92 867.59,-339.53 882.56,-329.65"/>
<polygon fill="black" stroke="black" points="884.65,-332.46 891.06,-324.03 880.79,-326.62 884.65,-332.46"/>
</g>
<!-- [root] provider[&quot;registry.terraform.io/hashicorp/azurerm&quot;] (close)&#45;&gt;[root] azurerm_subnet_network_security_group_association.bastion (expand) -->
<g id="edge21" class="edge">
<title>[root] provider[&quot;registry.terraform.io/hashicorp/azurerm&quot;] (close)&#45;&gt;[root] azurerm_subnet_network_security_group_association.bastion (expand)</title>
<path fill="none" stroke="black" d="M909.54,-360.9C973.91,-350.39 1058.14,-336.65 1125.43,-325.67"/>
<polygon fill="black" stroke="black" points="1126.35,-329.07 1135.65,-324 1125.22,-322.16 1126.35,-329.07"/>
</g>
<!-- [root] provider[&quot;registry.terraform.io/hashicorp/azurerm&quot;] (close)&#45;&gt;[root] azurerm_subnet_network_security_group_association.web (expand) -->
<g id="edge22" class="edge">
<title>[root] provider[&quot;registry.terraform.io/hashicorp/azurerm&quot;] (close)&#45;&gt;[root] azurerm_subnet_network_security_group_association.web (expand)</title>
<path fill="none" stroke="black" d="M752.41,-360.23C717.46,-350.21 672.87,-337.41 636.16,-326.88"/>
<polygon fill="black" stroke="black" points="637.09,-323.51 626.51,-324.12 635.16,-330.24 637.09,-323.51"/>
</g>
<!-- [root] root -->
<g id="node16" class="node">
<title>[root] root</title>
<ellipse fill="none" stroke="black" cx="810.85" cy="-450" rx="58.49" ry="18"/>
<text text-anchor="middle" x="810.85" y="-446.3" font-family="Times,serif" font-size="14.00">[root] root</text>
</g>
<!-- [root] root&#45;&gt;[root] provider[&quot;registry.terraform.io/hashicorp/azurerm&quot;] (close) -->
<g id="edge23" class="edge">
<title>[root] root&#45;&gt;[root] provider[&quot;registry.terraform.io/hashicorp/azurerm&quot;] (close)</title>
<path fill="none" stroke="black" d="M810.85,-431.7C810.85,-423.98 810.85,-414.71 810.85,-406.11"/>
<polygon fill="black" stroke="black" points="814.35,-406.1 810.85,-396.1 807.35,-406.1 814.35,-406.1"/>
</g>
</g>
</svg>
